<?xml version="1.0" encoding="UTF-8"?>
<!DOCTYPE svg PUBLIC "-//W3C//DTD SVG 1.1//EN" "http://www.w3.org/Graphics/SVG/1.1/DTD/svg11.dtd">
<!-- Creator: CorelDRAW X7 -->
<svg xmlns="http://www.w3.org/2000/svg" xml:space="preserve" width="45.1254mm" height="62.5597mm" version="1.1" style="shape-rendering:geometricPrecision; text-rendering:geometricPrecision; image-rendering:optimizeQuality; fill-rule:evenodd; clip-rule:evenodd"
viewBox="0 0 641 889"
 xmlns:xlink="http://www.w3.org/1999/xlink">
 <defs>
  <style type="text/css">
   <![CDATA[
    .fil0 {fill:#2B2A29}
   ]]>
  </style>
 </defs>
 <g id="Layer_x0020_1">
  <metadata id="CorelCorpID_0Corel-Layer"/>
  <g id="_235588639152">
   <path class="fil0" d="M338 889c-28,0 -53,0 -81,-3 -30,-3 -65,-8 -90,-14 -24,-5 -38,-10 -46,-14 -8,-3 -9,-3 -11,-12 -1,-8 -1,-23 0,-36 1,-13 5,-24 8,-33 4,-9 8,-17 10,-23 2,-5 3,-8 2,-12 -1,-4 -4,-8 -13,-20 -10,-13 -25,-34 -39,-57 -14,-22 -27,-46 -38,-70 -10,-25 -17,-51 -21,-75 -4,-24 -4,-47 -3,-69 1,-21 3,-41 8,-58 5,-17 11,-30 18,-42 6,-11 13,-20 17,-27 4,-6 5,-10 5,-13 1,-4 0,-7 -4,-9 -3,-2 -9,-3 -17,-12 -8,-9 -18,-26 -23,-48 -4,-21 -4,-48 -2,-71 3,-24 8,-46 13,-59 5,-13 10,-18 12,-21 3,-4 3,-8 3,-11 1,-3 2,-6 -1,-10 -4,-5 -10,-12 -18,-20 -8,-9 -16,-19 -21,-27 -5,-9 -7,-15 -6,-19 2,-3 6,-4 9,-4 3,0 5,1 7,1 0,0 94,34 132,48 38,14 85,31 173,31 88,0 135,-17 173,-31 38,-14 132,-48 132,-48 4,-1 13,-2 15,3 1,4 0,10 -5,19 -5,8 -14,18 -22,27 -7,8 -14,15 -17,20 -3,4 -2,7 -2,10 1,3 1,7 3,11 3,3 7,8 12,21 5,13 11,35 13,59 3,23 3,50 -2,71 -5,22 -14,39 -22,48 -8,9 -14,10 -18,12 -3,2 -4,5 -4,9 0,3 1,7 5,13 4,7 11,16 18,27 7,12 13,25 18,42 4,17 7,37 8,58 1,22 0,45 -4,69 -4,24 -11,50 -21,75 -10,24 -23,48 -37,70 -15,23 -30,44 -39,57 -9,12 -12,16 -13,20 -1,4 -1,7 1,12 3,6 6,14 10,23 4,9 7,20 8,33 2,13 1,28 0,36 -1,9 -3,9 -11,12 -7,4 -21,9 -46,14 -24,6 -60,11 -84,14 -25,3 -39,3 -52,3zm-16 -474c-2,0 -4,-1 -6,-2 -1,-1 -3,-2 -10,-5 -7,-3 -18,-9 -28,-14 -11,-5 -21,-10 -27,-14 -6,-3 -8,-6 -8,-8 0,-2 1,-5 3,-9 3,-5 6,-12 15,-25 9,-13 24,-33 33,-44 9,-12 13,-15 17,-17 4,-3 8,-5 13,-5 4,0 8,2 13,5 4,2 7,5 16,17 9,11 24,31 33,44 9,13 12,20 15,25 2,4 3,7 3,9 0,2 -2,5 -8,8 -6,4 -16,9 -27,14 -10,5 -21,11 -28,14 -7,3 -9,4 -10,5 -2,1 -3,2 -5,2 -1,0 -2,0 -4,0zm223 -301c-12,-2 -35,-3 -58,-3 -23,0 -46,1 -63,3 -16,2 -26,4 -34,11 -7,6 -13,16 -16,33 -3,17 -3,41 -2,56 0,15 1,20 3,26 1,5 4,10 8,15 4,5 9,9 15,11 5,3 11,4 19,5 9,0 20,1 31,1 12,0 24,0 39,0 15,0 32,0 45,-1 14,0 23,-1 31,-3 8,-3 14,-7 18,-13 5,-6 8,-13 10,-20 2,-8 3,-15 4,-24 0,-8 0,-17 0,-25 0,-8 -1,-15 -2,-22 -1,-7 -2,-14 -4,-20 -2,-6 -4,-11 -7,-15 -2,-3 -6,-6 -9,-8 -3,-1 -6,-3 -9,-4 -3,-1 -6,-2 -19,-3zm-442 0c13,-2 35,-3 58,-3 23,0 47,1 63,3 17,2 27,4 34,11 8,6 14,16 17,33 2,17 2,41 2,56 -1,15 -1,20 -3,26 -2,5 -4,10 -8,15 -4,5 -10,9 -15,11 -6,3 -12,4 -20,5 -8,0 -19,1 -31,1 -11,0 -24,0 -39,0 -14,0 -31,0 -45,-1 -13,0 -23,-1 -31,-3 -7,-3 -13,-7 -18,-13 -4,-6 -7,-13 -9,-20 -2,-8 -3,-15 -4,-24 -1,-8 -1,-17 0,-25 0,-8 1,-15 2,-22 1,-7 2,-14 4,-20 1,-6 4,-11 6,-15 3,-3 6,-6 9,-8 4,-1 7,-3 10,-4 2,-1 5,-2 18,-3z"/>
   <rect class="fil0" x="139" y="173" width="49.8368" height="35.8567" rx="13" ry="13"/>
   <rect class="fil0" x="461" y="173" width="49.8368" height="35.8567" rx="13" ry="13"/>
  </g>
 </g>
</svg>
